<svg id="visual" viewBox="0 0 1800 1200" width="1800" height="1200" xmlns="http://www.w3.org/2000/svg" xmlns:xlink="http://www.w3.org/1999/xlink" version="1.1"><rect width="1800" height="1200" fill="#ffffff"></rect><g><g transform="translate(260 956)"><path d="M195.7 -157.3C237.8 -103.3 245.2 -22.8 226.4 48.4C207.5 119.6 162.4 181.6 99.4 215.3C36.5 249 -44.3 254.4 -105.2 223.3C-166 192.1 -206.8 124.3 -218.2 55.3C-229.6 -13.7 -211.5 -84 -170.2 -137.9C-128.9 -191.8 -64.5 -229.4 6.2 -234.3C76.8 -239.2 153.6 -211.4 195.7 -157.3Z" stroke="#00bf63" fill="none" stroke-width="20"></path></g><g transform="translate(66 158)"><path d="M136.9 -98.5C169.3 -68.5 182 -12 170.6 39.5C159.3 90.9 123.9 137.5 80.6 152.6C37.4 167.8 -13.9 151.5 -58.7 127.7C-103.6 103.9 -142 72.5 -157.6 28.9C-173.2 -14.7 -165.9 -70.6 -135.8 -100.1C-105.7 -129.6 -52.9 -132.7 -0.3 -132.5C52.2 -132.2 104.4 -128.6 136.9 -98.5Z" stroke="#00bf63" fill="none" stroke-width="20"></path></g><g transform="translate(1600 446)"><path d="M145.1 -119.8C174.8 -78.5 176.5 -18.9 161.4 32.8C146.4 84.4 114.6 128.2 69.3 153.8C24 179.5 -34.9 187 -83.1 166.2C-131.3 145.4 -168.9 96.3 -174.7 46.8C-180.4 -2.7 -154.3 -52.5 -119.9 -94.9C-85.5 -137.3 -42.8 -172.4 7.5 -178.3C57.7 -184.3 115.4 -161.2 145.1 -119.8Z" stroke="#00bf63" fill="none" stroke-width="20"></path></g><g transform="translate(1144 1004)"><path d="M133.2 -112.1C161.2 -71 164.8 -16.3 152.5 33.8C140.3 83.9 112.2 129.4 69.7 153C27.2 176.5 -29.7 178.3 -69.3 155C-109 131.7 -131.3 83.4 -137.9 36.6C-144.5 -10.3 -135.5 -55.5 -109.9 -96C-84.3 -136.5 -42.2 -172.3 5.2 -176.4C52.6 -180.5 105.1 -153.1 133.2 -112.1Z" stroke="#00bf63" fill="none" stroke-width="20"></path></g></g></svg>