<svg id="visual" viewBox="0 0 1800 1200" width="1800" height="1200" xmlns="http://www.w3.org/2000/svg" xmlns:xlink="http://www.w3.org/1999/xlink" version="1.1"><rect x="0" y="0" width="1800" height="1200" fill="#FFFFFF"></rect><defs><linearGradient id="grad1_0" x1="33.3%" y1="0%" x2="100%" y2="100%"><stop offset="20%" stop-color="#00bf63" stop-opacity="1"></stop><stop offset="80%" stop-color="#00bf63" stop-opacity="1"></stop></linearGradient></defs><defs><linearGradient id="grad1_1" x1="33.3%" y1="0%" x2="100%" y2="100%"><stop offset="20%" stop-color="#00bf63" stop-opacity="1"></stop><stop offset="80%" stop-color="#9fe1b0" stop-opacity="1"></stop></linearGradient></defs><defs><linearGradient id="grad1_2" x1="33.3%" y1="0%" x2="100%" y2="100%"><stop offset="20%" stop-color="#ffffff" stop-opacity="1"></stop><stop offset="80%" stop-color="#9fe1b0" stop-opacity="1"></stop></linearGradient></defs><defs><linearGradient id="grad2_0" x1="0%" y1="0%" x2="66.7%" y2="100%"><stop offset="20%" stop-color="#00bf63" stop-opacity="1"></stop><stop offset="80%" stop-color="#00bf63" stop-opacity="1"></stop></linearGradient></defs><defs><linearGradient id="grad2_1" x1="0%" y1="0%" x2="66.7%" y2="100%"><stop offset="20%" stop-color="#9fe1b0" stop-opacity="1"></stop><stop offset="80%" stop-color="#00bf63" stop-opacity="1"></stop></linearGradient></defs><defs><linearGradient id="grad2_2" x1="0%" y1="0%" x2="66.7%" y2="100%"><stop offset="20%" stop-color="#9fe1b0" stop-opacity="1"></stop><stop offset="80%" stop-color="#ffffff" stop-opacity="1"></stop></linearGradient></defs><g transform="translate(1800, 0)"><path d="M0 594.9C-80.8 590.9 -161.6 586.8 -227.7 549.6C-293.7 512.4 -344.9 442 -376.2 376.2C-407.4 310.3 -418.7 249.1 -451.8 187.1C-484.9 125.2 -539.9 62.6 -594.9 0L0 0Z" fill="#d0f0d7"></path><path d="M0 396.6C-53.9 393.9 -107.8 391.2 -151.8 366.4C-195.8 341.6 -230 294.7 -250.8 250.8C-271.6 206.9 -279.1 166 -301.2 124.8C-323.3 83.5 -359.9 41.7 -396.6 0L0 0Z" fill="#69d089"></path><path d="M0 198.3C-26.9 197 -53.9 195.6 -75.9 183.2C-97.9 170.8 -115 147.3 -125.4 125.4C-135.8 103.4 -139.6 83 -150.6 62.4C-161.6 41.7 -180 20.9 -198.3 0L0 0Z" fill="#00bf63"></path></g><g transform="translate(0, 1200)"><path d="M0 -594.9C71.8 -550 143.6 -505 188.3 -454.5C233 -404.1 250.5 -348 316.1 -316.1C381.6 -284.1 495.2 -276.3 549.6 -227.7C604.1 -179 599.5 -89.5 594.9 0L0 0Z" fill="#d0f0d7"></path><path d="M0 -396.6C47.9 -366.7 95.7 -336.7 125.5 -303C155.3 -269.4 167 -232 210.7 -210.7C254.4 -189.4 330.1 -184.2 366.4 -151.8C402.7 -119.3 399.7 -59.7 396.6 0L0 0Z" fill="#69d089"></path><path d="M0 -198.3C23.9 -183.3 47.9 -168.3 62.8 -151.5C77.7 -134.7 83.5 -116 105.4 -105.4C127.2 -94.7 165.1 -92.1 183.2 -75.9C201.4 -59.7 199.8 -29.8 198.3 0L0 0Z" fill="#00bf63"></path></g></svg>