<svg id="visual" viewBox="0 0 1800 1200" width="1800" height="1200" xmlns="http://www.w3.org/2000/svg" xmlns:xlink="http://www.w3.org/1999/xlink" version="1.1"><rect x="0" y="0" width="1800" height="1200" fill="#FFFFFF"></rect><path d="M0 790L42.8 792.3C85.7 794.7 171.3 799.3 257 803.2C342.7 807 428.3 810 514 804.2C599.7 798.3 685.3 783.7 771.2 790.3C857 797 943 825 1028.8 829.2C1114.7 833.3 1200.3 813.7 1286 819.3C1371.7 825 1457.3 856 1543 855.8C1628.7 855.7 1714.3 824.3 1757.2 808.7L1800 793L1800 1201L1757.2 1201C1714.3 1201 1628.7 1201 1543 1201C1457.3 1201 1371.7 1201 1286 1201C1200.3 1201 1114.7 1201 1028.8 1201C943 1201 857 1201 771.2 1201C685.3 1201 599.7 1201 514 1201C428.3 1201 342.7 1201 257 1201C171.3 1201 85.7 1201 42.8 1201L0 1201Z" fill="#ffffff"></path><path d="M0 815L42.8 818.3C85.7 821.7 171.3 828.3 257 831.2C342.7 834 428.3 833 514 833.7C599.7 834.3 685.3 836.7 771.2 851.7C857 866.7 943 894.3 1028.8 899C1114.7 903.7 1200.3 885.3 1286 873.5C1371.7 861.7 1457.3 856.3 1543 853.8C1628.7 851.3 1714.3 851.7 1757.2 851.8L1800 852L1800 1201L1757.2 1201C1714.3 1201 1628.7 1201 1543 1201C1457.3 1201 1371.7 1201 1286 1201C1200.3 1201 1114.7 1201 1028.8 1201C943 1201 857 1201 771.2 1201C685.3 1201 599.7 1201 514 1201C428.3 1201 342.7 1201 257 1201C171.3 1201 85.7 1201 42.8 1201L0 1201Z" fill="#d0f0d7"></path><path d="M0 1016L42.8 993.8C85.7 971.7 171.3 927.3 257 913.3C342.7 899.3 428.3 915.7 514 928C599.7 940.3 685.3 948.7 771.2 955.8C857 963 943 969 1028.8 969.7C1114.7 970.3 1200.3 965.7 1286 959.3C1371.7 953 1457.3 945 1543 935.7C1628.7 926.3 1714.3 915.7 1757.2 910.3L1800 905L1800 1201L1757.2 1201C1714.3 1201 1628.7 1201 1543 1201C1457.3 1201 1371.7 1201 1286 1201C1200.3 1201 1114.7 1201 1028.8 1201C943 1201 857 1201 771.2 1201C685.3 1201 599.7 1201 514 1201C428.3 1201 342.7 1201 257 1201C171.3 1201 85.7 1201 42.8 1201L0 1201Z" fill="#9fe1b0"></path><path d="M0 1007L42.8 1013.3C85.7 1019.7 171.3 1032.3 257 1036.3C342.7 1040.3 428.3 1035.7 514 1034.3C599.7 1033 685.3 1035 771.2 1043.8C857 1052.7 943 1068.3 1028.8 1075.7C1114.7 1083 1200.3 1082 1286 1082C1371.7 1082 1457.3 1083 1543 1070.3C1628.7 1057.7 1714.3 1031.3 1757.2 1018.2L1800 1005L1800 1201L1757.2 1201C1714.3 1201 1628.7 1201 1543 1201C1457.3 1201 1371.7 1201 1286 1201C1200.3 1201 1114.7 1201 1028.8 1201C943 1201 857 1201 771.2 1201C685.3 1201 599.7 1201 514 1201C428.3 1201 342.7 1201 257 1201C171.3 1201 85.7 1201 42.8 1201L0 1201Z" fill="#69d089"></path><path d="M0 1123L42.8 1118C85.7 1113 171.3 1103 257 1097.8C342.7 1092.7 428.3 1092.3 514 1088.7C599.7 1085 685.3 1078 771.2 1077.2C857 1076.3 943 1081.7 1028.8 1087.8C1114.7 1094 1200.3 1101 1286 1098.2C1371.7 1095.3 1457.3 1082.7 1543 1088.3C1628.7 1094 1714.3 1118 1757.2 1130L1800 1142L1800 1201L1757.2 1201C1714.3 1201 1628.7 1201 1543 1201C1457.3 1201 1371.7 1201 1286 1201C1200.3 1201 1114.7 1201 1028.8 1201C943 1201 857 1201 771.2 1201C685.3 1201 599.7 1201 514 1201C428.3 1201 342.7 1201 257 1201C171.3 1201 85.7 1201 42.8 1201L0 1201Z" fill="#00bf63"></path></svg>